<?xml version="1.0" encoding="UTF-8"?>
<svg id="Livello_2" data-name="Livello 2" xmlns="http://www.w3.org/2000/svg" viewBox="0 0 132.68 96.03">
  <defs>
    <style>
      .cls-1 {
        fill: #212125;
      }
    </style>
  </defs>
  <path class="cls-1" d="M32.17,50.05l-1.67,4.48c-.19.52.29,1.03.81.87,1.63-.5,4.4-1.38,5.75-1.94.21-.09.44-.09.66-.01,1.88.7,8.54,4.35,15.19,1.01.87-.44,1.59-1.14,2.46-1.59l3.66-1.89,1.75-.82-.74-1.21c-.26-.42-.61-.78-1.04-1.04-.72-.42-1.92-.86-3.29-.33-.66.26-1.35.43-2.06.47-.52.03-1.08.04-1.5-.01-.34-.04-.6-.3-.66-.63-.36-2.22-1.42-8.04-2.17-12.57-.11-.65-1.15-.55-1.54-.09-2.64,3.1-6.07,6.23-4.96,12.19,0,0,.7,3.05-3.14,3.13l-6.7-.54c-.36-.03-.7.18-.82.52Z"/>
  <path class="cls-1" d="M106.6,48.72c-.27-.43-.63-.8-1.07-1.05-.79-.46-2.12-.91-3.62-.14-.51.26-1.1.37-1.67.31-.28-.03-.53-.08-.8-.13-.7-.14-1.41-.25-2.13-.27-1.43-.04-2.78.06-3.84.2-.41.05-.81.11-1.2.19-1.41.28-2.79.75-4,1.53-.46.3-1.01.48-2.01.5l-6.7-.54c-.36-.03-.7.18-.82.52l-1.67,4.48c-.19.52.29,1.03.81.87,1.63-.5,4.4-1.38,5.75-1.95.21-.09.44-.09.66-.01.81.3,4.34,1.45,5.81,1.92.15.05.25.15.32.28.38.68.34,1.39.34,1.39-.1,6.06,3.8,8.59,6.91,11.21.46.39,1.5.31,1.5-.35-.01-4.59.08-10.51.07-12.76,0-.34.28-.52.54-.73.09-.07.3-.23.41-.32.11-.12.23-.22.35-.31.46-.33.9-.66,1.4-.92l3.66-1.9,1.75-.82-.74-1.21Z"/>
</svg>