<?xml version="1.0" encoding="UTF-8"?>
<svg id="Livello_2" data-name="Livello 2" xmlns="http://www.w3.org/2000/svg" viewBox="0 0 34.31 29.63">
  <defs>
    <style>
      .cls-1 {
        fill: #212125;
      }
    </style>
  </defs>
  <path class="cls-1" d="M7.57,5.05l-4.71,1.96c-.51.22-.56.91-.08,1.19,1.48.85,4.01,2.28,5.34,2.88.21.09.37.26.46.48.77,1.85,2.64,9.21,9.62,11.8.92.34,1.92.39,2.84.72l3.88,1.39,1.79.72v-1.62c.13-.48.85-1.25.75-1.74-.18-.81-.33-1.76-1.65-2.4-.64-.31-1.9-.4-2.41-.9-.38-.36-.77-.76-1.02-1.1-.2-.28-.19-.64,0-.91,1.38-1.78,4.91-6.52,7.71-10.16.4-.52-.38-1.22-.98-1.19-4.07.18-8.7-.19-12.3,4.68,0,0-1.75,2.59-4.43-.16l-3.66-5.58c-.22-.28-.77-.21-1.1-.07l-.05.02h0Z"/>
</svg>